<?xml version="1.0" standalone="no"?>
<!DOCTYPE svg PUBLIC "-//W3C//DTD SVG 20010904//EN"
 "http://www.w3.org/TR/2001/REC-SVG-20010904/DTD/svg10.dtd">
<svg version="1.0" xmlns="http://www.w3.org/2000/svg"
 width="1200.000000pt" height="1200.000000pt" viewBox="0 0 1200.000000 1200.000000"
 preserveAspectRatio="xMidYMid meet">

<g transform="translate(0.000000,1200.000000) scale(0.100000,-0.100000)"
fill="#000000" stroke="none">
<path d="M4130 6900 l0 -1500 185 0 185 0 0 35 0 35 -150 0 -150 0 0 1430 0
1430 150 0 150 0 0 35 0 35 -185 0 -185 0 0 -1500z"/>
<path d="M7500 8365 l0 -35 150 0 150 0 0 -1430 0 -1430 -150 0 -150 0 0 -35
0 -35 185 0 185 0 0 1500 0 1500 -185 0 -185 0 0 -35z"/>
<path d="M5150 8006 c-68 -19 -128 -53 -181 -103 -59 -55 -103 -139 -93 -177
9 -35 50 -66 88 -66 37 1 58 15 79 55 53 102 184 155 300 121 264 -77 477
-711 552 -1649 8 -104 15 -222 15 -263 0 -107 23 -143 92 -144 28 0 42 7 61
29 22 27 24 39 30 188 20 485 109 1027 222 1353 147 422 320 570 543 463 42
-19 62 -38 88 -79 50 -78 95 -94 146 -54 54 42 35 126 -50 213 -87 90 -208
133 -348 125 -185 -11 -329 -136 -455 -393 -90 -184 -173 -458 -216 -710 -9
-58 -20 -105 -23 -105 -3 0 -14 46 -23 103 -67 387 -204 753 -346 923 -67 80
-159 147 -234 169 -60 18 -184 18 -247 1z"/>
<path d="M6750 4520 l0 -500 90 0 90 0 0 253 0 253 31 30 c27 26 37 29 96 29
59 0 67 -3 89 -28 l24 -28 0 -255 0 -254 96 0 95 0 -3 273 -3 273 -30 59 c-25
48 -39 63 -79 84 -90 46 -211 30 -283 -38 -12 -12 -25 -21 -28 -21 -3 0 -5 83
-5 185 l0 185 -90 0 -90 0 0 -500z"/>
<path d="M3172 4730 c-56 -12 -138 -57 -168 -93 -91 -108 -117 -289 -62 -435
27 -72 100 -143 175 -173 89 -34 218 -32 299 5 34 15 76 42 93 60 l32 33 -45
49 -44 49 -24 -21 c-42 -38 -87 -55 -149 -55 -92 -1 -144 41 -174 139 l-6 22
232 0 232 0 -6 89 c-15 207 -110 320 -282 335 -33 2 -79 1 -103 -4z m138 -155
c34 -18 57 -56 61 -105 l4 -35 -135 0 -135 0 3 25 c14 104 114 160 202 115z"/>
<path d="M3920 4729 c-116 -23 -190 -93 -198 -183 -6 -72 2 -98 40 -141 40
-46 84 -69 189 -95 108 -28 143 -45 158 -76 9 -20 8 -32 -1 -52 -40 -82 -206
-64 -233 26 l-9 32 -89 0 -89 0 7 -32 c28 -132 172 -219 336 -204 188 17 288
117 258 257 -19 86 -94 137 -258 175 -35 8 -77 22 -92 30 -59 30 -62 90 -6
124 64 39 146 17 168 -45 l13 -35 88 0 c87 0 88 0 88 24 0 66 -65 145 -143
175 -64 23 -167 33 -227 20z"/>
<path d="M4680 4727 c-108 -24 -188 -92 -205 -174 l-7 -33 96 0 c88 0 96 2 96
19 0 58 123 83 176 37 24 -20 28 -31 29 -77 l0 -54 -110 -6 c-156 -9 -230 -41
-272 -117 -31 -56 -36 -105 -19 -166 45 -152 270 -206 392 -94 21 19 21 19 27
-12 l7 -30 96 0 c87 0 96 2 89 18 -14 37 -25 185 -25 351 0 168 -1 175 -26
221 -29 54 -66 84 -125 105 -59 21 -156 26 -219 12z m190 -450 c0 -72 -13 -97
-64 -121 -109 -52 -202 26 -150 125 20 41 65 58 147 59 l67 0 0 -63z"/>
<path d="M6180 4727 c-72 -17 -110 -38 -148 -81 -55 -63 -65 -156 -22 -221 26
-39 94 -83 157 -100 29 -8 77 -22 106 -30 90 -25 122 -63 101 -120 -16 -42
-117 -59 -179 -30 -30 15 -45 35 -59 78 -5 14 -18 17 -92 17 l-86 0 6 -31 c26
-132 138 -205 311 -203 182 3 285 80 285 216 0 114 -63 163 -291 223 -103 27
-134 75 -86 131 18 20 35 28 73 31 43 4 54 2 81 -21 17 -14 34 -37 37 -51 6
-24 9 -25 96 -25 87 0 90 1 90 23 -1 39 -36 102 -76 135 -69 57 -200 83 -304
59z"/>
<path d="M7801 4730 c-116 -24 -207 -106 -241 -217 -51 -167 -2 -370 108 -446
69 -48 111 -61 207 -61 105 0 157 19 225 80 135 122 146 403 20 546 -69 79
-207 121 -319 98z m145 -159 c46 -28 68 -82 72 -182 2 -47 -1 -104 -8 -127
-38 -143 -208 -156 -267 -22 -25 56 -22 204 4 262 37 81 127 113 199 69z"/>
<path d="M8682 4726 c-23 -8 -58 -26 -76 -40 l-34 -25 -6 29 -5 30 -86 0 -85
0 0 -490 0 -490 95 0 95 0 0 165 0 164 36 -24 c105 -71 244 -52 328 46 89 104
110 337 45 489 -51 118 -190 184 -307 146z m109 -174 c15 -17 33 -48 38 -69
14 -49 14 -177 0 -226 -13 -48 -66 -105 -99 -108 -69 -4 -92 2 -121 30 l-29
29 0 157 c0 88 5 165 10 175 18 34 61 51 119 47 46 -3 59 -9 82 -35z"/>
<path d="M5190 4718 c0 -2 55 -161 123 -355 l124 -352 -19 -48 c-22 -61 -47
-81 -109 -89 l-49 -7 0 -62 c0 -72 3 -75 86 -75 93 0 157 38 196 115 20 39
308 850 308 867 0 5 -44 7 -97 6 l-98 -3 -65 -217 c-35 -120 -67 -214 -71
-210 -3 4 -34 103 -69 220 l-63 212 -99 0 c-54 0 -98 -1 -98 -2z"/>
</g>
</svg>
